# xmcd
#
# Track frame offsets:
# 150
# 16446
# 28981
# 44268
# 60838
# 73847
# 88897
# 100932
# 115942
# 129911
#
# Disc length: 1931 seconds
#
#
# Revision: 2
# Processed by: cddbd v1.5PL3 Copyright (c) Steve Scherf et al.
# Submitted via: FreeRIP 2.35 
#
DISCID=8407890a
DTITLE=Conjunto Amanecer - Chihuahua 100%
DYEAR=1900
DGENRE=Other
TTITLE0=Ni El Dinero Ni Nada
TTITLE1=Pueblito De Pasada
TTITLE2=Maria Chuchena
TTITLE3=No Te Vayas
TTITLE4=Dos Reproches
TTITLE5=Apuesta En La Botella
TTITLE6=Arbolito
TTITLE7=Toda Mujer Toda Bonita
TTITLE8=En Tu Cumpleaños
TTITLE9=El Diario De Mi Vida
EXTD=
EXTT0=
EXTT1=
EXTT2=
EXTT3=
EXTT4=
EXTT5=
EXTT6=
EXTT7=
EXTT8=
EXTT9=
PLAYORDER=
